# xmcd CD database file
#
# Track frame offsets:
#	150
#	16010
#	31025
#	51057
#	65337
#	76420
#	93285
#	108620
#	123073
#	146723
#	167162
#	181225
#	191970
#	199630
#	214020
#
# Disc length: 3126 seconds
#
# Revision: 2
# Processed by: cddbd v1.5.1PL2 Copyright (c) Steve Scherf et al.
# Submitted via: CDex 1.51
#
DISCID=c40c340f
DTITLE=Des-ROW - D ディース・ロウ
DYEAR=2004
DGENRE=Vocal
TTITLE0=大見解 コア
TTITLE1=男々道 (悠激)
TTITLE2=cobalt (スペシアルr)
TTITLE3=P U R E
TTITLE4=Too late Two
TTITLE5=カゲロウ (long ver)
TTITLE6=lime-light-iris
TTITLE7=Funky sonic WorlD+
TTITLE8=夢有 (89)
TTITLE9=THE PLACE TO BE (long)
TTITLE10=VOIDDDD
TTITLE11=INNOVATIONS
TTITLE12=夜間行 (super heavy YUMIX)
TTITLE13=ULTRA-BUTTERFLY(坤剛l力)
TTITLE14=a-no-ther/day
EXTD=YEAR: 2004
EXTT0=
EXTT1=
EXTT2=
EXTT3=
EXTT4=
EXTT5=
EXTT6=
EXTT7=
EXTT8=
EXTT9=
EXTT10=
EXTT11=
EXTT12=
EXTT13=
EXTT14=
PLAYORDER=
